M48
;GenerationSoftware,Autodesk,EAGLE,9.6.2*%
;CreationDate,2025-02-06T04:54:02Z*%
FMAT,2
ICI,OFF
METRIC,TZ,000.000
T8C0.350
T7C0.800
T6C0.965
T5C1.000
T4C1.016
T3C1.397
T2C3.000
T1C3.200
%
G90
M71
T1
X8890Y46355
X8890Y34925
T2
X5080Y74930
X5080Y5080
X95250Y5080
X95250Y74930
T3
X94005Y41931
X94005Y36851
X94005Y31771
X94005Y26691
T4
X64211Y39649
X57709Y39649
X64211Y44171
X57709Y44171
X75641Y52349
X69139Y52349
X75641Y56871
X69139Y56871
X97790Y67310
X57709Y52349
X64211Y56871
X57709Y56871
X69139Y44171
X75641Y44171
X69139Y39649
X75641Y39649
X71120Y5080
X71120Y2540
X68580Y5080
X68580Y2540
X46279Y56871
X52781Y56871
X46279Y52349
X52781Y52349
X95250Y67310
X64211Y52349
T5
X15240Y45085
X33010Y29010
X15240Y42545
X15240Y40005
X17780Y43815
X17780Y41275
X17780Y38735
X15240Y37465
X17780Y36195
X25390Y4240
X58410Y29010
X55870Y29010
X53330Y29010
X50790Y29010
X48250Y29010
X45710Y29010
X43170Y29010
X40630Y29010
X38090Y29010
X35550Y29010
X30470Y29010
X27930Y29010
X25390Y29010
X22850Y29010
X58410Y4240
X55870Y4240
X53330Y4240
X50790Y4240
X48250Y4240
X45710Y4240
X22850Y4240
X43170Y4240
X27930Y4240
X30470Y4240
X33010Y4240
X35550Y4240
X38090Y4240
X40630Y4240
T6
X50800Y75390
X59690Y69390
X59690Y71390
X59690Y73390
X59690Y75390
X68580Y69390
X68580Y71390
X68580Y73390
X68580Y75390
X77470Y69390
X77470Y71390
X50800Y73390
X77470Y73390
X77470Y75390
X86360Y69390
X86360Y71390
X86360Y73390
X86360Y75390
X41910Y69390
X41910Y71390
X41910Y73390
X41910Y75390
X50800Y69390
X50800Y71390
T7
X13970Y68120
X13970Y70120
X13970Y72120
X13970Y74120
T8
X33020Y43498
X78423Y50006
X83503Y47466
X23177Y61119
X74771Y29210
X26352Y34449
X21431Y27622
X46037Y60960
X56197Y60960
X87947Y64135
X72231Y64135
X56197Y48260
X45085Y38418
X86678Y53181
X44132Y53816
X45085Y40958
X45085Y39688
X49530Y24924
X50482Y27464
X50482Y43339
X31750Y24924
X29210Y24924
X77311Y46355
X40799Y44926
X23495Y63341
X43974Y72708
X63817Y60960
X35084Y50800
X33496Y48260
X36513Y48260
X89694Y45720
X38735Y46037
M30