G04 EAGLE Gerber RS-274X export*
G75*
%MOMM*%
%FSLAX34Y34*%
%LPD*%
%IN*%
%IPPOS*%
%AMOC8*
5,1,8,0,0,1.08239X$1,22.5*%
G01*
%ADD10C,0.254000*%


D10*
X0Y0D02*
X1000000Y0D01*
X1000000Y800000D01*
X0Y800000D01*
X0Y0D01*
X967500Y748764D02*
X967424Y747696D01*
X967271Y746635D01*
X967043Y745588D01*
X966741Y744560D01*
X966367Y743556D01*
X965922Y742581D01*
X965408Y741641D01*
X964829Y740740D01*
X964187Y739882D01*
X963485Y739072D01*
X962728Y738315D01*
X961918Y737613D01*
X961060Y736971D01*
X960159Y736392D01*
X959219Y735878D01*
X958244Y735433D01*
X957240Y735059D01*
X956212Y734757D01*
X955165Y734529D01*
X954104Y734376D01*
X953036Y734300D01*
X951964Y734300D01*
X950896Y734376D01*
X949835Y734529D01*
X948788Y734757D01*
X947760Y735059D01*
X946756Y735433D01*
X945781Y735878D01*
X944841Y736392D01*
X943940Y736971D01*
X943082Y737613D01*
X942272Y738315D01*
X941515Y739072D01*
X940813Y739882D01*
X940171Y740740D01*
X939592Y741641D01*
X939078Y742581D01*
X938633Y743556D01*
X938259Y744560D01*
X937957Y745588D01*
X937729Y746635D01*
X937576Y747696D01*
X937500Y748764D01*
X937500Y749836D01*
X937576Y750904D01*
X937729Y751965D01*
X937957Y753012D01*
X938259Y754040D01*
X938633Y755044D01*
X939078Y756019D01*
X939592Y756959D01*
X940171Y757860D01*
X940813Y758718D01*
X941515Y759528D01*
X942272Y760285D01*
X943082Y760987D01*
X943940Y761629D01*
X944841Y762208D01*
X945781Y762722D01*
X946756Y763167D01*
X947760Y763541D01*
X948788Y763843D01*
X949835Y764071D01*
X950896Y764224D01*
X951964Y764300D01*
X953036Y764300D01*
X954104Y764224D01*
X955165Y764071D01*
X956212Y763843D01*
X957240Y763541D01*
X958244Y763167D01*
X959219Y762722D01*
X960159Y762208D01*
X961060Y761629D01*
X961918Y760987D01*
X962728Y760285D01*
X963485Y759528D01*
X964187Y758718D01*
X964829Y757860D01*
X965408Y756959D01*
X965922Y756019D01*
X966367Y755044D01*
X966741Y754040D01*
X967043Y753012D01*
X967271Y751965D01*
X967424Y750904D01*
X967500Y749836D01*
X967500Y748764D01*
X967500Y50264D02*
X967424Y49196D01*
X967271Y48135D01*
X967043Y47088D01*
X966741Y46060D01*
X966367Y45056D01*
X965922Y44081D01*
X965408Y43141D01*
X964829Y42240D01*
X964187Y41382D01*
X963485Y40572D01*
X962728Y39815D01*
X961918Y39113D01*
X961060Y38471D01*
X960159Y37892D01*
X959219Y37378D01*
X958244Y36933D01*
X957240Y36559D01*
X956212Y36257D01*
X955165Y36029D01*
X954104Y35876D01*
X953036Y35800D01*
X951964Y35800D01*
X950896Y35876D01*
X949835Y36029D01*
X948788Y36257D01*
X947760Y36559D01*
X946756Y36933D01*
X945781Y37378D01*
X944841Y37892D01*
X943940Y38471D01*
X943082Y39113D01*
X942272Y39815D01*
X941515Y40572D01*
X940813Y41382D01*
X940171Y42240D01*
X939592Y43141D01*
X939078Y44081D01*
X938633Y45056D01*
X938259Y46060D01*
X937957Y47088D01*
X937729Y48135D01*
X937576Y49196D01*
X937500Y50264D01*
X937500Y51336D01*
X937576Y52404D01*
X937729Y53465D01*
X937957Y54512D01*
X938259Y55540D01*
X938633Y56544D01*
X939078Y57519D01*
X939592Y58459D01*
X940171Y59360D01*
X940813Y60218D01*
X941515Y61028D01*
X942272Y61785D01*
X943082Y62487D01*
X943940Y63129D01*
X944841Y63708D01*
X945781Y64222D01*
X946756Y64667D01*
X947760Y65041D01*
X948788Y65343D01*
X949835Y65571D01*
X950896Y65724D01*
X951964Y65800D01*
X953036Y65800D01*
X954104Y65724D01*
X955165Y65571D01*
X956212Y65343D01*
X957240Y65041D01*
X958244Y64667D01*
X959219Y64222D01*
X960159Y63708D01*
X961060Y63129D01*
X961918Y62487D01*
X962728Y61785D01*
X963485Y61028D01*
X964187Y60218D01*
X964829Y59360D01*
X965408Y58459D01*
X965922Y57519D01*
X966367Y56544D01*
X966741Y55540D01*
X967043Y54512D01*
X967271Y53465D01*
X967424Y52404D01*
X967500Y51336D01*
X967500Y50264D01*
X65800Y50264D02*
X65724Y49196D01*
X65571Y48135D01*
X65343Y47088D01*
X65041Y46060D01*
X64667Y45056D01*
X64222Y44081D01*
X63708Y43141D01*
X63129Y42240D01*
X62487Y41382D01*
X61785Y40572D01*
X61028Y39815D01*
X60218Y39113D01*
X59360Y38471D01*
X58459Y37892D01*
X57519Y37378D01*
X56544Y36933D01*
X55540Y36559D01*
X54512Y36257D01*
X53465Y36029D01*
X52404Y35876D01*
X51336Y35800D01*
X50264Y35800D01*
X49196Y35876D01*
X48135Y36029D01*
X47088Y36257D01*
X46060Y36559D01*
X45056Y36933D01*
X44081Y37378D01*
X43141Y37892D01*
X42240Y38471D01*
X41382Y39113D01*
X40572Y39815D01*
X39815Y40572D01*
X39113Y41382D01*
X38471Y42240D01*
X37892Y43141D01*
X37378Y44081D01*
X36933Y45056D01*
X36559Y46060D01*
X36257Y47088D01*
X36029Y48135D01*
X35876Y49196D01*
X35800Y50264D01*
X35800Y51336D01*
X35876Y52404D01*
X36029Y53465D01*
X36257Y54512D01*
X36559Y55540D01*
X36933Y56544D01*
X37378Y57519D01*
X37892Y58459D01*
X38471Y59360D01*
X39113Y60218D01*
X39815Y61028D01*
X40572Y61785D01*
X41382Y62487D01*
X42240Y63129D01*
X43141Y63708D01*
X44081Y64222D01*
X45056Y64667D01*
X46060Y65041D01*
X47088Y65343D01*
X48135Y65571D01*
X49196Y65724D01*
X50264Y65800D01*
X51336Y65800D01*
X52404Y65724D01*
X53465Y65571D01*
X54512Y65343D01*
X55540Y65041D01*
X56544Y64667D01*
X57519Y64222D01*
X58459Y63708D01*
X59360Y63129D01*
X60218Y62487D01*
X61028Y61785D01*
X61785Y61028D01*
X62487Y60218D01*
X63129Y59360D01*
X63708Y58459D01*
X64222Y57519D01*
X64667Y56544D01*
X65041Y55540D01*
X65343Y54512D01*
X65571Y53465D01*
X65724Y52404D01*
X65800Y51336D01*
X65800Y50264D01*
X65800Y748764D02*
X65724Y747696D01*
X65571Y746635D01*
X65343Y745588D01*
X65041Y744560D01*
X64667Y743556D01*
X64222Y742581D01*
X63708Y741641D01*
X63129Y740740D01*
X62487Y739882D01*
X61785Y739072D01*
X61028Y738315D01*
X60218Y737613D01*
X59360Y736971D01*
X58459Y736392D01*
X57519Y735878D01*
X56544Y735433D01*
X55540Y735059D01*
X54512Y734757D01*
X53465Y734529D01*
X52404Y734376D01*
X51336Y734300D01*
X50264Y734300D01*
X49196Y734376D01*
X48135Y734529D01*
X47088Y734757D01*
X46060Y735059D01*
X45056Y735433D01*
X44081Y735878D01*
X43141Y736392D01*
X42240Y736971D01*
X41382Y737613D01*
X40572Y738315D01*
X39815Y739072D01*
X39113Y739882D01*
X38471Y740740D01*
X37892Y741641D01*
X37378Y742581D01*
X36933Y743556D01*
X36559Y744560D01*
X36257Y745588D01*
X36029Y746635D01*
X35876Y747696D01*
X35800Y748764D01*
X35800Y749836D01*
X35876Y750904D01*
X36029Y751965D01*
X36257Y753012D01*
X36559Y754040D01*
X36933Y755044D01*
X37378Y756019D01*
X37892Y756959D01*
X38471Y757860D01*
X39113Y758718D01*
X39815Y759528D01*
X40572Y760285D01*
X41382Y760987D01*
X42240Y761629D01*
X43141Y762208D01*
X44081Y762722D01*
X45056Y763167D01*
X46060Y763541D01*
X47088Y763843D01*
X48135Y764071D01*
X49196Y764224D01*
X50264Y764300D01*
X51336Y764300D01*
X52404Y764224D01*
X53465Y764071D01*
X54512Y763843D01*
X55540Y763541D01*
X56544Y763167D01*
X57519Y762722D01*
X58459Y762208D01*
X59360Y761629D01*
X60218Y760987D01*
X61028Y760285D01*
X61785Y759528D01*
X62487Y758718D01*
X63129Y757860D01*
X63708Y756959D01*
X64222Y756019D01*
X64667Y755044D01*
X65041Y754040D01*
X65343Y753012D01*
X65571Y751965D01*
X65724Y750904D01*
X65800Y749836D01*
X65800Y748764D01*
X88376Y447550D02*
X87331Y447619D01*
X86292Y447755D01*
X85265Y447960D01*
X84253Y448231D01*
X83261Y448567D01*
X82293Y448968D01*
X81354Y449432D01*
X80446Y449956D01*
X79575Y450538D01*
X78744Y451175D01*
X77957Y451866D01*
X77216Y452607D01*
X76525Y453394D01*
X75888Y454225D01*
X75306Y455096D01*
X74782Y456004D01*
X74318Y456943D01*
X73917Y457911D01*
X73581Y458903D01*
X73310Y459915D01*
X73105Y460942D01*
X72969Y461981D01*
X72900Y463026D01*
X72900Y464074D01*
X72969Y465119D01*
X73105Y466158D01*
X73310Y467185D01*
X73581Y468197D01*
X73917Y469189D01*
X74318Y470157D01*
X74782Y471096D01*
X75306Y472004D01*
X75888Y472875D01*
X76525Y473706D01*
X77216Y474493D01*
X77957Y475234D01*
X78744Y475925D01*
X79575Y476563D01*
X80446Y477145D01*
X81354Y477668D01*
X82293Y478132D01*
X83261Y478533D01*
X84253Y478869D01*
X85265Y479140D01*
X86292Y479345D01*
X87331Y479482D01*
X88376Y479550D01*
X89424Y479550D01*
X90469Y479482D01*
X91508Y479345D01*
X92535Y479140D01*
X93547Y478869D01*
X94539Y478533D01*
X95507Y478132D01*
X96446Y477668D01*
X97354Y477145D01*
X98225Y476563D01*
X99056Y475925D01*
X99843Y475234D01*
X100584Y474493D01*
X101275Y473706D01*
X101913Y472875D01*
X102495Y472004D01*
X103018Y471096D01*
X103482Y470157D01*
X103883Y469189D01*
X104219Y468197D01*
X104490Y467185D01*
X104695Y466158D01*
X104832Y465119D01*
X104900Y464074D01*
X104900Y463026D01*
X104832Y461981D01*
X104695Y460942D01*
X104490Y459915D01*
X104219Y458903D01*
X103883Y457911D01*
X103482Y456943D01*
X103018Y456004D01*
X102495Y455096D01*
X101913Y454225D01*
X101275Y453394D01*
X100584Y452607D01*
X99843Y451866D01*
X99056Y451175D01*
X98225Y450538D01*
X97354Y449956D01*
X96446Y449432D01*
X95507Y448968D01*
X94539Y448567D01*
X93547Y448231D01*
X92535Y447960D01*
X91508Y447755D01*
X90469Y447619D01*
X89424Y447550D01*
X88376Y447550D01*
X88376Y333250D02*
X87331Y333319D01*
X86292Y333455D01*
X85265Y333660D01*
X84253Y333931D01*
X83261Y334267D01*
X82293Y334668D01*
X81354Y335132D01*
X80446Y335656D01*
X79575Y336238D01*
X78744Y336875D01*
X77957Y337566D01*
X77216Y338307D01*
X76525Y339094D01*
X75888Y339925D01*
X75306Y340796D01*
X74782Y341704D01*
X74318Y342643D01*
X73917Y343611D01*
X73581Y344603D01*
X73310Y345615D01*
X73105Y346642D01*
X72969Y347681D01*
X72900Y348726D01*
X72900Y349774D01*
X72969Y350819D01*
X73105Y351858D01*
X73310Y352885D01*
X73581Y353897D01*
X73917Y354889D01*
X74318Y355857D01*
X74782Y356796D01*
X75306Y357704D01*
X75888Y358575D01*
X76525Y359406D01*
X77216Y360193D01*
X77957Y360934D01*
X78744Y361625D01*
X79575Y362263D01*
X80446Y362845D01*
X81354Y363368D01*
X82293Y363832D01*
X83261Y364233D01*
X84253Y364569D01*
X85265Y364840D01*
X86292Y365045D01*
X87331Y365182D01*
X88376Y365250D01*
X89424Y365250D01*
X90469Y365182D01*
X91508Y365045D01*
X92535Y364840D01*
X93547Y364569D01*
X94539Y364233D01*
X95507Y363832D01*
X96446Y363368D01*
X97354Y362845D01*
X98225Y362263D01*
X99056Y361625D01*
X99843Y360934D01*
X100584Y360193D01*
X101275Y359406D01*
X101913Y358575D01*
X102495Y357704D01*
X103018Y356796D01*
X103482Y355857D01*
X103883Y354889D01*
X104219Y353897D01*
X104490Y352885D01*
X104695Y351858D01*
X104832Y350819D01*
X104900Y349774D01*
X104900Y348726D01*
X104832Y347681D01*
X104695Y346642D01*
X104490Y345615D01*
X104219Y344603D01*
X103883Y343611D01*
X103482Y342643D01*
X103018Y341704D01*
X102495Y340796D01*
X101913Y339925D01*
X101275Y339094D01*
X100584Y338307D01*
X99843Y337566D01*
X99056Y336875D01*
X98225Y336238D01*
X97354Y335656D01*
X96446Y335132D01*
X95507Y334668D01*
X94539Y334267D01*
X93547Y333931D01*
X92535Y333660D01*
X91508Y333455D01*
X90469Y333319D01*
X89424Y333250D01*
X88376Y333250D01*
M02*
