G04 EAGLE Gerber RS-274X export*
G75*
%MOMM*%
%FSLAX34Y34*%
%LPD*%
%INSoldermask Bottom*%
%IPPOS*%
%AMOC8*
5,1,8,0,0,1.08239X$1,22.5*%
G01*
%ADD10C,3.203200*%
%ADD11P,1.869504X8X22.500000*%
%ADD12C,2.298700*%
%ADD13C,2.082800*%
%ADD14C,1.711200*%
%ADD15C,1.676400*%
%ADD16R,1.511200X1.511200*%
%ADD17C,1.511200*%
%ADD18C,1.727200*%
%ADD19R,2.082800X2.082800*%
%ADD20C,3.403200*%
%ADD21C,0.959600*%


D10*
X952500Y749300D03*
X952500Y50800D03*
X50800Y50800D03*
X50800Y749300D03*
D11*
X685800Y25400D03*
X685800Y50800D03*
X711200Y25400D03*
X711200Y50800D03*
D12*
X929573Y419311D02*
X950528Y419311D01*
X950528Y368511D02*
X929573Y368511D01*
X929573Y317711D02*
X950528Y317711D01*
X950528Y266911D02*
X929573Y266911D01*
D13*
X577088Y568706D03*
X642112Y568706D03*
X577088Y523494D03*
X642112Y523494D03*
X691388Y568706D03*
X756412Y568706D03*
X691388Y523494D03*
X756412Y523494D03*
X577088Y441706D03*
X642112Y441706D03*
X577088Y396494D03*
X642112Y396494D03*
X691388Y441706D03*
X756412Y441706D03*
X691388Y396494D03*
X756412Y396494D03*
X462788Y568706D03*
X527812Y568706D03*
X462788Y523494D03*
X527812Y523494D03*
D14*
X228500Y42400D03*
X253900Y42400D03*
X279300Y42400D03*
X304700Y42400D03*
X330100Y42400D03*
X355500Y42400D03*
X380900Y42400D03*
X406300Y42400D03*
X431700Y42400D03*
X457100Y42400D03*
X482500Y42400D03*
X507900Y42400D03*
X533300Y42400D03*
X558700Y42400D03*
X584100Y42400D03*
X228500Y290100D03*
X253900Y290100D03*
X279300Y290100D03*
X304700Y290100D03*
X330100Y290100D03*
X355500Y290100D03*
X380900Y290100D03*
X406300Y290100D03*
X431700Y290100D03*
X457100Y290100D03*
X482500Y290100D03*
X507900Y290100D03*
X533300Y290100D03*
X558700Y290100D03*
X584100Y290100D03*
D15*
X426466Y693900D02*
X411734Y693900D01*
X411734Y713900D02*
X426466Y713900D01*
X426466Y733900D02*
X411734Y733900D01*
X411734Y753900D02*
X426466Y753900D01*
X500634Y693900D02*
X515366Y693900D01*
X515366Y713900D02*
X500634Y713900D01*
X500634Y733900D02*
X515366Y733900D01*
X515366Y753900D02*
X500634Y753900D01*
X589534Y693900D02*
X604266Y693900D01*
X604266Y713900D02*
X589534Y713900D01*
X589534Y733900D02*
X604266Y733900D01*
X604266Y753900D02*
X589534Y753900D01*
X678434Y693900D02*
X693166Y693900D01*
X693166Y713900D02*
X678434Y713900D01*
X678434Y733900D02*
X693166Y733900D01*
X693166Y753900D02*
X678434Y753900D01*
X767334Y693900D02*
X782066Y693900D01*
X782066Y713900D02*
X767334Y713900D01*
X767334Y733900D02*
X782066Y733900D01*
X782066Y753900D02*
X767334Y753900D01*
D16*
X139700Y681200D03*
D17*
X139700Y701200D03*
X139700Y721200D03*
X139700Y741200D03*
D15*
X856234Y693900D02*
X870966Y693900D01*
X870966Y713900D02*
X856234Y713900D01*
X856234Y733900D02*
X870966Y733900D01*
X870966Y753900D02*
X856234Y753900D01*
D18*
X952500Y680720D02*
X952500Y665480D01*
X977900Y665480D02*
X977900Y680720D01*
D13*
X177800Y361950D03*
X152400Y374650D03*
X177800Y387350D03*
X177800Y412750D03*
X177800Y438150D03*
X152400Y400050D03*
X152400Y425450D03*
D19*
X152400Y450850D03*
D20*
X88900Y463550D03*
X88900Y349250D03*
D21*
X387350Y460375D03*
X773113Y463550D03*
X835025Y474663D03*
X231775Y611188D03*
X747713Y292100D03*
X263525Y344488D03*
X214313Y276225D03*
X460375Y609600D03*
X561975Y609600D03*
X879475Y641350D03*
X722313Y641350D03*
X561975Y482600D03*
X450850Y384175D03*
X866775Y531813D03*
X441325Y538163D03*
X450850Y409575D03*
X450850Y396875D03*
X495300Y249238D03*
X504825Y274638D03*
X504825Y433388D03*
X317500Y249238D03*
X292100Y249238D03*
X407988Y449263D03*
X234950Y633413D03*
X439738Y727075D03*
X638175Y609600D03*
X350838Y508000D03*
X334963Y482600D03*
X365125Y482600D03*
X896938Y457200D03*
X330200Y434975D03*
X784225Y500063D03*
M02*
